<svg id="Capa_1" data-name="Capa 1" xmlns="http://www.w3.org/2000/svg" viewBox="0 0 160 160.95"><defs><style>.cls-1{fill:#fff;}</style></defs><path class="cls-1" d="M100.79,121.48c-1.63-3.31-2.27-6.13-4-7.87Q72,88.47,46.93,63.68c-3.76-3.71-9.84-4.46-12.6-.76-3.58,4.77-5.54,10.75-8,16.3-.23.5.77,1.74,1.44,2.41q25.7,25.62,51.49,51.09A4.57,4.57,0,0,0,83,133.84c4-1.23,8.17-2.32,11.57-4.55C97.17,127.61,98.68,124.26,100.79,121.48ZM153.28-.14c-2.61,1.37-4.63,2-6,3.25-3.41,3.16-7.32,4.15-11.84,4.44-11.11.72-19.4,7.88-21.78,18.81-.91,4.21-.88,8.62-1.43,12.92-.87,6.75-3.6,9.33-10.4,9.69A27.17,27.17,0,0,0,82.4,58c-3.56,3.93-3,9,1.34,11.54,3.65,2.17,6.54.34,9.67-1.52,2.91-1.73,6.13-3.65,9.35-4,14.09-1.41,22.29-8.82,24.23-22.82.38-2.63.4-5.32.59-8,.53-7.29,3.68-10.55,10.92-11,7.7-.47,14.48-3.16,19.21-9.24,1.48-1.9,1.71-5.68,1-8.14C158.08,2.87,155.19,1.57,153.28-.14ZM21.8,90.73c-2.08,5.38-4.23,10.58-6,15.91a4.63,4.63,0,0,0,1,3.93Q33.26,127.34,50,143.84A4.11,4.11,0,0,0,53.33,145C59,143.05,64.5,140.86,70,138.8ZM10.94,119.56c-3.74,10-7.52,19.26-10.58,28.73a9.5,9.5,0,0,0,12,12c9.61-3.1,19-6.95,28.29-10.43Zm148.9-31.4a7.17,7.17,0,0,0-7.1-7.24h-.25a77.53,77.53,0,0,0-10.42,1,46.72,46.72,0,0,0-29.95,16.32c-2.78,3.21-2.94,6.74,0,9.9s6.36,3.36,9.87.85a19,19,0,0,0,2.59-2.32,32.06,32.06,0,0,1,22-10.21,41.37,41.37,0,0,0,6.92-1c3.89-.81,6.1-3.24,6.29-7.3ZM79.42,13.34C79.93,4.68,77.53,1.1,73,.73S65,3.64,64.75,9.41C64.19,20.33,61,29.9,52.62,37.46c-3.21,2.93-3.77,6.64-.9,10.28s7.54,3.68,11.75-.19A47.73,47.73,0,0,0,79.41,13.34Zm80.44,127.57c0-5.81-3.76-9.82-9.48-10a9.89,9.89,0,0,0-1.25,19.74l.54,0c6,.14,10.13-3.87,10.18-9.79ZM19.61.66a9.89,9.89,0,1,0,.26,19.77c5.86,0,9.91-4.31,9.73-10.27A9.44,9.44,0,0,0,20.21.68l-.57,0ZM149.85,40.73a9.89,9.89,0,1,0,.23,19.77c5.86,0,9.89-4.29,9.73-10.24a9.42,9.42,0,0,0-9.37-9.5h-.55Z" transform="translate(0.14 0.14)"/><path class="cls-1" d="M100.79,121.48c-2.11,2.78-3.62,6.13-6.21,7.85-3.4,2.23-7.61,3.32-11.57,4.55a4.57,4.57,0,0,1-3.76-1.12Q53.41,107.29,27.76,81.67c-.67-.67-1.67-1.91-1.44-2.41,2.47-5.55,4.43-11.53,8-16.3,2.76-3.7,8.84-3,12.6.76q25.11,24.8,49.88,49.93C98.52,115.35,99.16,118.17,100.79,121.48Z" transform="translate(0.14 0.14)"/><path class="cls-1" d="M153.28-.14c1.91,1.68,4.8,3,5.4,5,.73,2.46.5,6.24-1,8.14-4.73,6.08-11.51,8.78-19.21,9.24-7.24.43-10.39,3.69-10.92,11-.19,2.66-.21,5.35-.59,8-1.94,14-10.14,21.41-24.23,22.82-3.22.33-6.44,2.25-9.35,4-3.13,1.86-6,3.69-9.67,1.52-4.29-2.55-4.9-7.61-1.34-11.54a27.17,27.17,0,0,1,19.42-9c6.8-.36,9.53-2.94,10.4-9.69.55-4.3.52-8.71,1.43-12.92C116,15.52,124.29,8.36,135.4,7.64c4.52-.29,8.43-1.28,11.84-4.44C148.65,1.83,150.67,1.23,153.28-.14Z" transform="translate(0.14 0.14)"/><path class="cls-1" d="M21.8,90.73l48.08,48.08c-5.47,2.06-11,4.25-16.64,6.17a4.11,4.11,0,0,1-3.33-1.13Q33.19,127.34,16.7,110.58a4.63,4.63,0,0,1-1-3.93C17.57,101.34,19.72,96.14,21.8,90.73Z" transform="translate(0.14 0.14)"/><path class="cls-1" d="M10.94,119.56l29.75,30.27c-9.32,3.48-18.68,7.33-28.29,10.43a9.5,9.5,0,0,1-12-12C3.41,138.81,7.19,129.6,10.94,119.56Z" transform="translate(0.14 0.14)"/><path class="cls-1" d="M159.82,88.15c-.18,4.07-2.39,6.5-6.23,7.36a41.37,41.37,0,0,1-6.92,1,32.06,32.06,0,0,0-22,10.21A19,19,0,0,1,122,109c-3.51,2.51-7,2.27-9.87-.85s-2.8-6.69,0-9.9a46.76,46.76,0,0,1,30-16.35,77.53,77.53,0,0,1,10.42-1,7.16,7.16,0,0,1,7.27,7Z" transform="translate(0.14 0.14)"/><path class="cls-1" d="M79.41,13.34A47.68,47.68,0,0,1,63.46,47.56c-4.21,3.87-8.8,4-11.75.19s-2.31-7.35.9-10.28c8.33-7.57,11.57-17.14,12.13-28C65,3.65,68.44.41,73,.74S79.92,4.68,79.41,13.34Z" transform="translate(0.14 0.14)"/><path class="cls-1" d="M159.85,140.91c0,5.94-4.22,10-10.19,9.79a9.89,9.89,0,0,1,.17-19.78l.54,0C156.09,131.09,159.89,135.1,159.85,140.91Z" transform="translate(0.14 0.14)"/><path class="cls-1" d="M19.64.7a9.43,9.43,0,0,1,10,8.83c0,.23,0,.45,0,.67.18,6-3.87,10.23-9.73,10.27A9.89,9.89,0,1,1,19.67.7Z" transform="translate(0.14 0.14)"/><path class="cls-1" d="M149.89,40.77a9.44,9.44,0,0,1,10,8.89c0,.21,0,.42,0,.64.16,6-3.87,10.2-9.73,10.24a9.89,9.89,0,1,1-.23-19.77Z" transform="translate(0.14 0.14)"/></svg>