<svg id="Capa_1" data-name="Capa 1" xmlns="http://www.w3.org/2000/svg" viewBox="0 0 160 160.95"><defs><style>.cls-1{fill:#fff;}</style></defs><path d="M63,151.27c-1-3-1.58-4.53-2-6.08Q55.88,127.11,50.83,109c-2-7.13-3.83-8-11.59-5.78C16.47,109.92,1,128.09-.12,149.41c-.37,7.12,4.15,11.35,12.39,11.35q67.5,0,135,0c8.86,0,12.87-3.75,12.57-11.56-.82-21.12-16.54-39.49-39.4-46C113,101,111.11,102,109.2,108.75c-3.85,13.65-7.66,27.3-11.9,42.44-1.09-2.95-1.73-4.47-2.2-6C92.77,137.55,91,129.78,88,122.35c-2.6-6.56-2.48-12.13,2.64-17.72,1.37-1.5,2.14-5.09,1.08-6.37-4.26-5.15-10.9-2.19-16.5-2.54-2.39-.14-5.91,1.12-7.1,2.76-1,1.32.54,4.25,1.36,6.34,1.33,3.38,4.86,7,4.18,9.93C71,126.53,67,138.1,63,151.27ZM125.56,40.05c0-22.41-20.22-40.22-45.7-40.21-25,0-45.49,17.84-45.69,39.87C34,61.91,54.52,80.16,79.75,80.18,105.3,80.2,125.54,62.47,125.56,40.05Z" transform="translate(0.14 0.16)"/><path class="cls-1" d="M63,151.27c4-13.17,8-24.74,10.72-36.52.68-2.93-2.85-6.55-4.18-9.93-.82-2.09-2.33-5-1.36-6.34,1.19-1.64,4.71-2.9,7.1-2.76,5.6.35,12.24-2.61,16.5,2.54,1.06,1.28.29,4.87-1.08,6.37-5.12,5.59-5.24,11.16-2.64,17.72,3,7.43,4.74,15.2,7.07,22.82.47,1.55,1.11,3.07,2.2,6,4.24-15.14,8-28.79,11.9-42.44,1.91-6.8,3.79-7.72,11.24-5.58,22.86,6.55,38.58,24.92,39.4,46,.3,7.81-3.71,11.55-12.57,11.56q-67.5,0-135,0C4,160.76-.49,156.53-.12,149.41,1,128.09,16.47,109.92,39.24,103.25,47,101,48.83,101.9,50.83,109Q55.9,127.1,61,145.19C61.39,146.74,62,148.26,63,151.27Z" transform="translate(0.14 0.16)"/><path class="cls-1" d="M125.56,40.05c0,22.42-20.26,40.15-45.81,40.13C54.52,80.16,34,61.91,34.17,39.71c.2-22,20.64-39.87,45.69-39.87C105.34-.17,125.59,17.64,125.56,40.05Z" transform="translate(0.14 0.16)"/></svg>