<svg id="Capa_1" data-name="Capa 1" xmlns="http://www.w3.org/2000/svg" viewBox="0 0 160 160.95"><defs><style>.cls-1{fill:#fff;}</style></defs><path class="cls-1" d="M.22,60.56H159.5c.12,2,.31,3.8.31,5.59q0,38.25,0,76.51c0,12.68-6.18,18.12-20.44,18.12H20C6.58,160.78-.09,155-.12,143.25q-.08-39,0-78C-.12,63.76.09,62.29.22,60.56ZM45.61,90.71c0-10-.49-10.52-10.63-10.53-11.69,0-12.37.55-12.37,10.13s.83,10.27,11.06,10.27C45.13,100.59,45.6,100.19,45.61,90.71Zm45.73-.29c0-9.62-.62-10.23-10.37-10.24-11.85,0-12.61.59-12.62,9.91,0,9.82.71,10.49,11.38,10.49C90.91,100.58,91.34,100.2,91.34,90.42Zm45.74.12c0-9.89-.48-10.35-10.8-10.36-11.36,0-12.18.66-12.19,9.79,0,9.89.74,10.61,11.25,10.61C136.69,100.59,137.08,100.25,137.08,90.54ZM45.61,130.85c0-9.9-.49-10.36-10.81-10.37-11.35,0-12.18.66-12.19,9.79,0,9.89.75,10.61,11.25,10.61C45.21,140.89,45.6,140.55,45.61,130.85Zm45.73,0c0-9.9-.48-10.36-10.8-10.37-11.36,0-12.18.66-12.19,9.79,0,9.89.75,10.61,11.25,10.61C91,140.89,91.34,140.55,91.34,130.85Zm45.74.22c0-10.08-.5-10.58-10.55-10.59-11.74,0-12.44.56-12.44,10.07s.81,10.33,11,10.33C136.59,140.89,137.08,140.49,137.08,131.07Z" transform="translate(0.14 0.16)"/><path class="cls-1" d="M159.81,49.67H.37C.37,43.74-.3,38,.53,32.45,1.67,24.74,8.32,20.2,17.26,20c5.31-.11,10.62,0,16.92,0,0-3.43-.11-6.54,0-9.64C34.5,3.66,38.94-.27,45.89-.16c6.72.1,10.77,3.93,11,10.49.1,3,0,6,0,9.3h45.89c0-3.11-.12-6.23,0-9.34.3-6.66,4.78-10.58,11.74-10.45,6.7.13,10.72,4,10.93,10.54.1,3,0,6,0,9.6,5.77,0,10.85,0,15.93,0,11.37.09,18.07,5.87,18.35,15.92C159.92,40.4,159.81,44.89,159.81,49.67Z" transform="translate(0.14 0.16)"/></svg>