<svg id="Capa_1" data-name="Capa 1" xmlns="http://www.w3.org/2000/svg" viewBox="0 0 900 65"><defs><style>.cls-1{fill:#fff;}</style></defs><path class="cls-1" d="M1126.81,385.88c3.35,0,7.44,1.9,5.83,4.82-1,1.86-3.18,2.42-8.69,2.39-4.72,0-16.71-3.61-16.71-3.61S1120.73,385.86,1126.81,385.88Z" transform="translate(-233 -352.01)"/><path class="cls-1" d="M1113.51,399.6c2.08,1,5.09.34,6.11-1,1.17-1.52.6-3.45-1.6-4.54-2.71-1.34-7.38-2.48-13.14-2.84C1109.14,393.28,1111.15,398.48,1113.51,399.6Z" transform="translate(-233 -352.01)"/><path class="cls-1" d="M1113.5,380.3c2.21-1,5.7-.72,7,.28,1.52,1.15,1.14,2.8-1.2,3.89a37.54,37.54,0,0,1-14.46,3.48C1109.41,385.89,1111,381.43,1113.5,380.3Z" transform="translate(-233 -352.01)"/><path class="cls-1" d="M239.18,393.88c-3.34,0-7.43-1.91-5.82-4.82,1-1.86,3.18-2.43,8.69-2.39,4.72,0,16.71,3.61,16.71,3.61S245.27,393.89,239.18,393.88Z" transform="translate(-233 -352.01)"/><path class="cls-1" d="M252.49,380.16c-2.08-1-5.09-.34-6.11,1-1.17,1.51-.6,3.45,1.6,4.54,2.71,1.34,7.38,2.47,13.14,2.84C256.85,386.47,254.85,381.28,252.49,380.16Z" transform="translate(-233 -352.01)"/><path class="cls-1" d="M252.5,399.45c-2.21,1-5.7.73-7-.28-1.52-1.15-1.14-2.8,1.21-3.89a37.46,37.46,0,0,1,14.45-3.47C256.59,393.86,255,398.32,252.5,399.45Z" transform="translate(-233 -352.01)"/><path class="cls-1" d="M482,391.65H264.7c-.41,0-.74-.79-.74-1.77s.33-1.78.74-1.78H482c.41,0,.74.8.74,1.78S482.36,391.65,482,391.65Z" transform="translate(-233 -352.01)"/><path class="cls-1" d="M1101.3,391.65H884.06c-.42,0-.75-.79-.75-1.77s.33-1.78.75-1.78H1101.3c.41,0,.74.8.74,1.78S1101.71,391.65,1101.3,391.65Z" transform="translate(-233 -352.01)"/><path class="cls-1" d="M683,378.45c-.24-.15,3-2.28,10.34-5.1a217.64,217.64,0,0,1,33.14-9.28,402.48,402.48,0,0,1,52.93-7.34,243.77,243.77,0,0,1,32.46-.32,79.72,79.72,0,0,1,17.24,2.82c2.79.9,5.66,2.09,7.59,3.94a6.24,6.24,0,0,1,2.37,6.16,6.93,6.93,0,0,1-1.53,3.13,13.47,13.47,0,0,1-3.37,2.49,32.12,32.12,0,0,1-8.48,2.92,100.45,100.45,0,0,1-17.46,1.76,258.81,258.81,0,0,1-32.31-1.52,361,361,0,0,1-52.1-9.25c-14.23-3.66-25-7.68-31.65-11s-9.44-5.73-9.17-5.85,3.68,1.83,10.65,4.69a210.85,210.85,0,0,0,31.89,9.7,392.82,392.82,0,0,0,51.33,8.29A259.6,259.6,0,0,0,807.94,376a91.63,91.63,0,0,0,15.62-1.6c4.78-1.05,9-2.84,9.23-5.47.7-2.72-2.15-5-6.65-6.37a70.87,70.87,0,0,0-15-2.46,239.94,239.94,0,0,0-31.07.11,440.34,440.34,0,0,0-52.15,6.42,279.77,279.77,0,0,0-33.3,8C687.1,377,683.33,378.69,683,378.45Z" transform="translate(-233 -352.01)"/><path class="cls-1" d="M683,405.15c-.14-.09.91-.74,3.06-1.87a97.15,97.15,0,0,1,10.17-4.41c9.19-3.51,23.42-7.75,41.87-11.54a515.37,515.37,0,0,1,66.75-9.16,308.27,308.27,0,0,1,40.82-.37,99.6,99.6,0,0,1,21.48,3.52c3.44,1.1,7,2.57,9.28,4.8a10.28,10.28,0,0,1,2.62,3.57c.23,1.29.68,2.58.24,3.88-.06,1.32-1,2.56-1.83,3.79a16.7,16.7,0,0,1-4.09,3A39.34,39.34,0,0,1,862.94,404a124.84,124.84,0,0,1-21.81,2.2,326.9,326.9,0,0,1-40.65-1.88,461.05,461.05,0,0,1-65.7-11.56c-18-4.57-31.54-9.58-40-13.71a67.28,67.28,0,0,1-9.18-5.12c-1.87-1.31-2.76-2-2.6-2.11.41-.23,4.48,2.4,13.26,6.07s22.36,8.24,40.24,12.42a492.66,492.66,0,0,0,64.94,10.6,327.42,327.42,0,0,0,39.4,1.62,116,116,0,0,0,20-2c6.13-1.34,11.91-3.71,12.2-7.31,1-3.65-3-6.81-8.83-8.53a90.74,90.74,0,0,0-19.27-3.16,306.09,306.09,0,0,0-39.42.16,555.83,555.83,0,0,0-66,8.23,343.13,343.13,0,0,0-42,10.29C688,403.18,683.34,405.4,683,405.15Z" transform="translate(-233 -352.01)"/><path class="cls-1" d="M683,415.61c-.73-.37,9.62-6.2,30.49-10.52A279.2,279.2,0,0,1,751,399.77a171.37,171.37,0,0,1,23.12-.26,57.29,57.29,0,0,1,12.5,2.05c4.14,1.05,8.54,4.33,7.51,7.67-.19,1.65-1.75,3.31-3.74,4.31a23.48,23.48,0,0,1-6.31,2.17,72.15,72.15,0,0,1-12.6,1.27,183.23,183.23,0,0,1-23-1.11,251.76,251.76,0,0,1-36.89-6.67c-10.06-2.65-17.64-5.55-22.31-7.95s-6.55-4.17-6.26-4.3,2.78,1.18,7.74,3.13a157.88,157.88,0,0,0,22.54,6.67,286.19,286.19,0,0,0,36.14,5.71,183.82,183.82,0,0,0,21.75.85,63.41,63.41,0,0,0,10.76-1.11c3.26-.73,5.83-1.85,5.9-3.41,1-3.41-7.42-5.19-14.49-5.63a169.27,169.27,0,0,0-21.73,0,321.56,321.56,0,0,0-36.71,4.4C694.24,411.18,683.5,416,683,415.61Z" transform="translate(-233 -352.01)"/><path class="cls-1" d="M683,378.45c-.33.24-4.1-1.48-11.59-3.85a279.77,279.77,0,0,0-33.3-8A440.34,440.34,0,0,0,586,360.17a240,240,0,0,0-31.07-.11,70.87,70.87,0,0,0-15,2.46c-4.5,1.35-7.35,3.65-6.65,6.37.19,2.63,4.45,4.42,9.23,5.47a91.63,91.63,0,0,0,15.62,1.6,259.6,259.6,0,0,0,31.07-1.26,392.82,392.82,0,0,0,51.33-8.29,211.22,211.22,0,0,0,31.89-9.7c7-2.86,10.25-4.9,10.65-4.69s-2.45,2.55-9.17,5.85-17.42,7.33-31.65,11a361.25,361.25,0,0,1-52.1,9.25,258.81,258.81,0,0,1-32.31,1.52,100.45,100.45,0,0,1-17.46-1.76,32.12,32.12,0,0,1-8.48-2.92,13.47,13.47,0,0,1-3.37-2.49,6.93,6.93,0,0,1-1.53-3.13,6.24,6.24,0,0,1,2.37-6.16c1.93-1.85,4.8-3,7.59-3.94a79.72,79.72,0,0,1,17.24-2.82,243.77,243.77,0,0,1,32.46.32,402.48,402.48,0,0,1,52.93,7.34,218,218,0,0,1,33.14,9.28C680,376.17,683.24,378.3,683,378.45Z" transform="translate(-233 -352.01)"/><path class="cls-1" d="M683,405.15c-.34.25-5-2-14.48-5a343.13,343.13,0,0,0-42-10.29,555.83,555.83,0,0,0-66-8.23,306.09,306.09,0,0,0-39.42-.16,90.74,90.74,0,0,0-19.27,3.16c-5.83,1.72-9.8,4.88-8.83,8.53.29,3.6,6.07,6,12.2,7.31a116,116,0,0,0,20,2,327.42,327.42,0,0,0,39.4-1.62,492.66,492.66,0,0,0,64.94-10.6c17.88-4.18,31.51-8.74,40.24-12.42s12.85-6.3,13.26-6.07c.16.08-.73.8-2.6,2.11a67.28,67.28,0,0,1-9.18,5.12c-8.46,4.13-22,9.14-40,13.71a461.05,461.05,0,0,1-65.7,11.56,326.9,326.9,0,0,1-40.65,1.88,124.84,124.84,0,0,1-21.81-2.2,39.34,39.34,0,0,1-10.43-3.58,16.7,16.7,0,0,1-4.09-3c-.81-1.23-1.77-2.47-1.83-3.79-.44-1.3,0-2.59.24-3.88a10.28,10.28,0,0,1,2.62-3.57c2.33-2.23,5.84-3.7,9.28-4.8a99.6,99.6,0,0,1,21.48-3.52,308.27,308.27,0,0,1,40.82.37,515.37,515.37,0,0,1,66.75,9.16c18.45,3.79,32.68,8,41.87,11.54a97.15,97.15,0,0,1,10.17,4.41C682.09,404.41,683.14,405.06,683,405.15Z" transform="translate(-233 -352.01)"/><path class="cls-1" d="M683,415.61c-.5.38-11.24-4.43-31.9-8a321.56,321.56,0,0,0-36.71-4.4,169.27,169.27,0,0,0-21.73,0c-7.07.44-15.52,2.22-14.49,5.63.07,1.56,2.64,2.68,5.9,3.41a63.41,63.41,0,0,0,10.76,1.11,183.82,183.82,0,0,0,21.75-.85,286.19,286.19,0,0,0,36.14-5.71,157.88,157.88,0,0,0,22.54-6.67c5-1.95,7.36-3.33,7.74-3.13s-1.55,1.9-6.26,4.3-12.25,5.3-22.31,7.95a251.76,251.76,0,0,1-36.89,6.67,183.23,183.23,0,0,1-23,1.11,72.15,72.15,0,0,1-12.6-1.27,23.48,23.48,0,0,1-6.31-2.17c-2-1-3.55-2.66-3.74-4.31-1-3.34,3.37-6.62,7.51-7.67a57.29,57.29,0,0,1,12.5-2.05,171.37,171.37,0,0,1,23.12.26,279.2,279.2,0,0,1,37.49,5.32C673.38,409.41,683.73,415.24,683,415.61Z" transform="translate(-233 -352.01)"/></svg>