<svg id="Capa_1" data-name="Capa 1" xmlns="http://www.w3.org/2000/svg" viewBox="0 0 900 65"><defs><style>.cls-1{fill:#fff;}</style></defs><path class="cls-1" d="M683,411.75c-.26-.11,3.29-1.6,11.15-3.58a337.14,337.14,0,0,1,35.72-6.49c15.75-2.13,35-4.12,57.06-5.15,11-.45,22.71-.77,35-.22a128,128,0,0,1,18.59,2,26.67,26.67,0,0,1,8.17,2.75c2.21,1.25,3.1,2.83,2.56,4.32-.06.76-.9,1.48-1.64,2.19A16.44,16.44,0,0,1,846,409.3a48.21,48.21,0,0,1-9.14,2A161.79,161.79,0,0,1,818,412.57c-12.28.17-23.92-.32-34.84-1.06C761.33,410,742.33,407.6,727,405s-26.93-5.38-34.13-7.7-10.17-4-9.88-4.1,4,1.28,11.48,3.28a325.63,325.63,0,0,0,34.37,6.81c15.23,2.29,34,4.48,55.35,5.8,10.63.66,22,1.08,33.48.88a148.61,148.61,0,0,0,16.84-1.12c5.15-.74,9.75-2,10-3.83.76-1.9-2.32-3.51-7.17-4.46a115.61,115.61,0,0,0-16.2-1.73c-11.39-.55-22.78-.3-33.49.08-21.47.87-40.58,2.63-56.22,4.5s-27.84,3.94-35.89,5.61S683.36,411.91,683,411.75Z" transform="translate(-233 -351.98)"/><path class="cls-1" d="M683,404.55c-.15-.07,1-.52,3.3-1.32s6-1.87,11-3.08a434.24,434.24,0,0,1,45.14-8.09c19.87-2.66,44.22-5.13,72-6.42,13.87-.56,28.6-.95,44-.26a160.22,160.22,0,0,1,23.17,2.47c3.7.77,7.49,1.79,10,3.36a8.31,8.31,0,0,1,2.83,2.5c.25.9.73,1.81.26,2.72-.06.93-1.1,1.79-2,2.66a20,20,0,0,1-4.4,2.11A59.17,59.17,0,0,1,877,403.71a204.3,204.3,0,0,1-23.5,1.54c-15.41.22-30.08-.4-43.83-1.32-27.5-1.86-51.47-4.89-70.82-8.09s-34-6.72-43.12-9.61a91.45,91.45,0,0,1-9.9-3.59c-2-.91-3-1.42-2.8-1.48.45-.16,4.83,1.68,14.3,4.25a396.8,396.8,0,0,0,43.37,8.71c19.24,2.94,43,5.73,70,7.42,13.47.84,27.81,1.38,42.46,1.14a191.87,191.87,0,0,0,21.54-1.43c6.6-.94,12.84-2.6,13.15-5.12,1-2.56-3.24-4.77-9.52-6a146.4,146.4,0,0,0-20.78-2.22c-14.5-.69-28.93-.37-42.49.12-27.2,1.12-51.35,3.38-71.12,5.77s-35.17,5.06-45.31,7.21S683.37,404.72,683,404.55Z" transform="translate(-233 -351.98)"/><path class="cls-1" d="M683,416c-.79-.26,10.37-4.34,32.87-7.37,11.13-1.54,24.79-3,40.41-3.73,7.82-.33,16.12-.56,24.92-.18a92.75,92.75,0,0,1,13.48,1.44c4.46.74,9.21,3,8.1,5.37-.2,1.16-1.89,2.32-4,3a35.78,35.78,0,0,1-6.8,1.53,118.31,118.31,0,0,1-13.58.88c-8.77.12-17.05-.24-24.79-.78-15.49-1.07-28.94-2.82-39.77-4.67a171.05,171.05,0,0,1-24.06-5.57c-5.07-1.68-7-2.92-6.74-3s3,.83,8.34,2.2a243.8,243.8,0,0,0,24.31,4.66c10.73,1.59,24,3.1,39,4,7.47.45,15.42.73,23.44.59a103,103,0,0,0,11.6-.77c3.52-.52,6.29-1.3,6.37-2.39,1.1-2.39-8-3.64-15.62-4-7.91-.39-15.92-.23-23.43,0-15.08.59-28.54,1.8-39.57,3.08C695.12,412.9,683.54,416.27,683,416Z" transform="translate(-233 -351.98)"/><path class="cls-1" d="M683,411.75c-.36.16-4.42-1-12.5-2.7s-20.23-3.74-35.89-5.61-34.75-3.63-56.22-4.5c-10.71-.38-22.1-.63-33.49-.08a115.61,115.61,0,0,0-16.2,1.73c-4.85,1-7.93,2.56-7.17,4.46.2,1.85,4.8,3.09,10,3.83A148.61,148.61,0,0,0,548.32,410c11.52.2,22.85-.22,33.48-.88,21.32-1.32,40.12-3.51,55.35-5.8a325.63,325.63,0,0,0,34.37-6.81c7.52-2,11.05-3.43,11.48-3.28s-2.64,1.78-9.88,4.1S654.34,402.47,639,405s-34.32,5-56.15,6.48c-10.92.74-22.56,1.23-34.84,1.06a161.79,161.79,0,0,1-18.82-1.23,48.21,48.21,0,0,1-9.14-2,16.44,16.44,0,0,1-3.64-1.75c-.74-.71-1.58-1.43-1.64-2.19-.54-1.49.35-3.07,2.56-4.32a26.67,26.67,0,0,1,8.17-2.75,128,128,0,0,1,18.59-2c12.28-.55,24-.23,35,.22,22,1,41.31,3,57.06,5.15a337.14,337.14,0,0,1,35.72,6.49C679.71,410.15,683.26,411.64,683,411.75Z" transform="translate(-233 -351.98)"/><path class="cls-1" d="M683,404.55c-.37.17-5.43-1.38-15.61-3.52s-25.52-4.81-45.31-7.21-43.92-4.65-71.12-5.77c-13.56-.49-28-.81-42.49-.12a146.4,146.4,0,0,0-20.78,2.22c-6.28,1.21-10.57,3.42-9.52,6,.31,2.52,6.55,4.18,13.15,5.12a191.87,191.87,0,0,0,21.54,1.43c14.65.24,29-.3,42.46-1.14,27-1.69,50.77-4.48,70-7.42a396.8,396.8,0,0,0,43.37-8.71c9.47-2.57,13.85-4.41,14.3-4.25.18.06-.79.57-2.8,1.48a91.9,91.9,0,0,1-9.89,3.59c-9.13,2.89-23.77,6.4-43.13,9.61s-43.32,6.23-70.83,8.09c-13.74.92-28.41,1.54-43.82,1.32a204.3,204.3,0,0,1-23.5-1.54,59.17,59.17,0,0,1-11.25-2.51,20,20,0,0,1-4.4-2.11c-.88-.87-1.91-1.73-2-2.66-.47-.91,0-1.82.26-2.72a8.31,8.31,0,0,1,2.83-2.5c2.5-1.57,6.28-2.59,10-3.36a160.22,160.22,0,0,1,23.17-2.47c15.39-.69,30.12-.3,44,.26,27.74,1.29,52.09,3.76,72,6.42a434.24,434.24,0,0,1,45.14,8.09c5,1.21,8.62,2.29,11,3.08S683.15,404.48,683,404.55Z" transform="translate(-233 -351.98)"/><path class="cls-1" d="M683,416c-.54.27-12.12-3.1-34.39-5.61-11-1.28-24.49-2.49-39.57-3.08-7.51-.26-15.51-.42-23.43,0-7.62.31-16.72,1.56-15.62,4,.08,1.09,2.85,1.87,6.37,2.39a103.13,103.13,0,0,0,11.6.77c8,.14,16-.14,23.44-.59,15-.91,28.22-2.42,39-4a243.8,243.8,0,0,0,24.31-4.66c5.35-1.37,7.93-2.34,8.34-2.2s-1.67,1.33-6.74,3a171.05,171.05,0,0,1-24.06,5.57c-10.83,1.85-24.28,3.6-39.77,4.67-7.74.54-16,.9-24.79.78a118.31,118.31,0,0,1-13.58-.88,35.78,35.78,0,0,1-6.8-1.53c-2.15-.7-3.83-1.86-4-3-1.11-2.33,3.64-4.63,8.1-5.37a92.75,92.75,0,0,1,13.48-1.44c8.8-.38,17.1-.15,24.92.18,15.62.76,29.28,2.19,40.41,3.73C672.63,411.66,683.79,415.74,683,416Z" transform="translate(-233 -351.98)"/><path class="cls-1" d="M1133,394.39s-19.87-3.3-31.34-1.37c2.59-1.46,10.59-5.34-7-6.48,6.85,2.07,0,5.1-4.62,6.72H728v2.28h362.33c4.57,1.51,10.74,4.29,4.28,6.72,17.62-1.14,9.62-5,7-6.48C1113.13,397.71,1133,394.39,1133,394.39Z" transform="translate(-233 -351.98)"/><path class="cls-1" d="M233,394.41s19.87,3.3,31.34,1.37c-2.59,1.46-10.59,5.34,7,6.48-6.85-2.07,0-5.1,4.62-6.72H638v-2.28H275.65c-4.57-1.52-10.74-4.29-4.28-6.72-17.62,1.14-9.62,5-7,6.48C252.87,391.09,233,394.4,233,394.41Z" transform="translate(-233 -351.98)"/><path class="cls-1" d="M702.62,372.24c2.06-7.34-5.31-15-19.58-20.26-14.27,5.29-21.64,12.92-19.58,20.26-11.29-4.46-29.94-6.28-45.93-4.49,21.69,4.54,35.78,13.46,35.56,22.51,10.75.93,49.15.93,59.9,0-.22-9.05,13.87-18,35.56-22.51C732.56,366,713.91,367.78,702.62,372.24Z" transform="translate(-233 -351.98)"/></svg>